<?xml version="1.0" standalone="no"?>
<!DOCTYPE svg PUBLIC "-//W3C//DTD SVG 20010904//EN"
 "http://www.w3.org/TR/2001/REC-SVG-20010904/DTD/svg10.dtd">
<svg version="1.0" xmlns="http://www.w3.org/2000/svg"
 width="325.000000pt" height="256.000000pt" viewBox="0 0 325.000000 256.000000"
 preserveAspectRatio="xMidYMid meet">

<g transform="translate(0.000000,256.000000) scale(0.100000,-0.100000)"
fill="#fff" stroke="none">
<path d="M944 2110 c-70 -10 -166 -47 -235 -91 -102 -65 -200 -207 -228 -329
-15 -66 -13 -207 4 -273 32 -122 66 -170 258 -365 100 -100 183 -182 186 -182
3 0 7 44 8 98 1 54 8 119 17 147 l15 49 -105 108 c-130 133 -149 170 -149 288
0 106 23 158 101 230 69 62 136 85 233 78 89 -7 139 -34 236 -129 l81 -79 82
83 c45 45 82 86 82 90 0 12 -150 155 -195 187 -66 45 -156 78 -246 90 -46 5
-84 9 -84 9 0 -1 -27 -5 -61 -9z"/>
<path d="M2179 2110 c-79 -10 -190 -54 -256 -103 -26 -20 -204 -192 -394 -384
-338 -339 -348 -350 -387 -433 -49 -103 -67 -194 -58 -297 22 -235 193 -435
418 -488 302 -71 595 102 674 400 17 61 18 196 3 267 -12 55 -58 155 -91 198
-44 56 -162 180 -172 180 -13 0 -166 -154 -166 -166 0 -5 32 -40 71 -79 97
-98 124 -155 124 -265 0 -75 -4 -91 -30 -138 -126 -229 -442 -227 -556 4 -28
55 -32 76 -32 139 0 129 8 141 398 530 393 393 389 390 530 390 97 0 136 -14
205 -71 69 -58 116 -172 107 -258 -10 -91 -40 -142 -153 -257 l-105 -106 15
-76 c9 -42 16 -110 16 -152 0 -41 3 -75 7 -75 4 0 86 80 183 178 142 143 182
190 212 247 136 263 60 561 -187 732 -45 31 -149 71 -203 78 -93 12 -108 12
-173 5z"/>
</g>
</svg>
